<mxfile host="Electron" modified="2024-06-05T10:17:30.392Z" agent="Mozilla/5.0 (Windows NT 10.0; Win64; x64) AppleWebKit/537.36 (KHTML, like Gecko) draw.io/24.2.5 Chrome/120.0.6099.109 Electron/28.1.0 Safari/537.36" etag="ZDwOfjS_6pCL9xDaDfaH" version="24.2.5" type="device">
  <diagram id="C5RBs43oDa-KdzZeNtuy" name="Page-1">
    <mxGraphModel dx="926" dy="552" grid="1" gridSize="10" guides="1" tooltips="1" connect="1" arrows="1" fold="1" page="0" pageScale="1" pageWidth="827" pageHeight="1169" math="0" shadow="0">
      <root>
        <mxCell id="WIyWlLk6GJQsqaUBKTNV-0" />
        <mxCell id="WIyWlLk6GJQsqaUBKTNV-1" parent="WIyWlLk6GJQsqaUBKTNV-0" />
        <mxCell id="3TArhonoCJizNyGvk_5B-2" value="Login/Register" style="rounded=0;whiteSpace=wrap;html=1;" vertex="1" parent="WIyWlLk6GJQsqaUBKTNV-1">
          <mxGeometry x="250" y="108" width="120" height="60" as="geometry" />
        </mxCell>
        <mxCell id="3TArhonoCJizNyGvk_5B-3" value="Melakukan Transaksi Pembayaran" style="rounded=0;whiteSpace=wrap;html=1;" vertex="1" parent="WIyWlLk6GJQsqaUBKTNV-1">
          <mxGeometry x="250" y="190" width="120" height="60" as="geometry" />
        </mxCell>
        <mxCell id="3TArhonoCJizNyGvk_5B-4" value="Melakukan Pemesanan Jasa" style="rounded=0;whiteSpace=wrap;html=1;" vertex="1" parent="WIyWlLk6GJQsqaUBKTNV-1">
          <mxGeometry x="250" y="352" width="120" height="60" as="geometry" />
        </mxCell>
        <mxCell id="3TArhonoCJizNyGvk_5B-5" value="Melakukan Pengaturan Data Akun" style="rounded=0;whiteSpace=wrap;html=1;" vertex="1" parent="WIyWlLk6GJQsqaUBKTNV-1">
          <mxGeometry x="250" y="270" width="120" height="60" as="geometry" />
        </mxCell>
        <mxCell id="3TArhonoCJizNyGvk_5B-6" value="Mengelola Data Pesanan" style="rounded=0;whiteSpace=wrap;html=1;" vertex="1" parent="WIyWlLk6GJQsqaUBKTNV-1">
          <mxGeometry x="250" y="674" width="120" height="60" as="geometry" />
        </mxCell>
        <mxCell id="3TArhonoCJizNyGvk_5B-7" value="Mengalokasi&lt;div&gt;Prioritas Pesanan&lt;/div&gt;" style="rounded=0;whiteSpace=wrap;html=1;" vertex="1" parent="WIyWlLk6GJQsqaUBKTNV-1">
          <mxGeometry x="250" y="592" width="120" height="60" as="geometry" />
        </mxCell>
        <mxCell id="3TArhonoCJizNyGvk_5B-8" value="Melakukan Pembuatan Toko" style="rounded=0;whiteSpace=wrap;html=1;" vertex="1" parent="WIyWlLk6GJQsqaUBKTNV-1">
          <mxGeometry x="250" y="512" width="120" height="60" as="geometry" />
        </mxCell>
        <mxCell id="3TArhonoCJizNyGvk_5B-9" value="Melihat Data&lt;div&gt;Riwayat Transaksi&lt;/div&gt;" style="rounded=0;whiteSpace=wrap;html=1;" vertex="1" parent="WIyWlLk6GJQsqaUBKTNV-1">
          <mxGeometry x="250" y="430" width="120" height="60" as="geometry" />
        </mxCell>
        <mxCell id="3TArhonoCJizNyGvk_5B-10" value="Mengelola Data Layanan Jasa" style="rounded=0;whiteSpace=wrap;html=1;" vertex="1" parent="WIyWlLk6GJQsqaUBKTNV-1">
          <mxGeometry x="250" y="760" width="120" height="60" as="geometry" />
        </mxCell>
        <mxCell id="3TArhonoCJizNyGvk_5B-13" value="Mengelola Data Jadwal Penyucian" style="rounded=0;whiteSpace=wrap;html=1;" vertex="1" parent="WIyWlLk6GJQsqaUBKTNV-1">
          <mxGeometry x="250" y="920" width="120" height="60" as="geometry" />
        </mxCell>
        <mxCell id="3TArhonoCJizNyGvk_5B-14" value="Mengelola Data Promo" style="rounded=0;whiteSpace=wrap;html=1;" vertex="1" parent="WIyWlLk6GJQsqaUBKTNV-1">
          <mxGeometry x="250" y="838" width="120" height="60" as="geometry" />
        </mxCell>
        <mxCell id="3TArhonoCJizNyGvk_5B-15" value="" style="endArrow=none;html=1;rounded=0;strokeColor=#001DBC;fillColor=#0050ef;" edge="1" parent="WIyWlLk6GJQsqaUBKTNV-1" source="3TArhonoCJizNyGvk_5B-0" target="3TArhonoCJizNyGvk_5B-2">
          <mxGeometry width="50" height="50" relative="1" as="geometry">
            <mxPoint x="-90" y="450" as="sourcePoint" />
            <mxPoint x="162.67000000000002" y="210" as="targetPoint" />
            <Array as="points">
              <mxPoint x="100" y="190" />
              <mxPoint x="180" y="140" />
            </Array>
          </mxGeometry>
        </mxCell>
        <mxCell id="3TArhonoCJizNyGvk_5B-16" value="" style="endArrow=none;html=1;rounded=0;strokeColor=#A50040;fillColor=#d80073;" edge="1" parent="WIyWlLk6GJQsqaUBKTNV-1" source="3TArhonoCJizNyGvk_5B-9" target="3TArhonoCJizNyGvk_5B-1">
          <mxGeometry width="50" height="50" relative="1" as="geometry">
            <mxPoint x="350" y="807" as="sourcePoint" />
            <mxPoint x="593" y="400" as="targetPoint" />
            <Array as="points">
              <mxPoint x="460" y="460" />
            </Array>
          </mxGeometry>
        </mxCell>
        <mxCell id="3TArhonoCJizNyGvk_5B-17" value="" style="endArrow=none;html=1;rounded=0;strokeColor=#001DBC;fillColor=#0050ef;" edge="1" parent="WIyWlLk6GJQsqaUBKTNV-1" source="3TArhonoCJizNyGvk_5B-0" target="3TArhonoCJizNyGvk_5B-3">
          <mxGeometry width="50" height="50" relative="1" as="geometry">
            <mxPoint x="-80" y="460" as="sourcePoint" />
            <mxPoint x="172.67000000000002" y="220" as="targetPoint" />
            <Array as="points">
              <mxPoint x="120" y="270" />
              <mxPoint x="180" y="220" />
            </Array>
          </mxGeometry>
        </mxCell>
        <mxCell id="3TArhonoCJizNyGvk_5B-18" value="" style="endArrow=none;html=1;rounded=0;strokeColor=#001DBC;fillColor=#0050ef;" edge="1" parent="WIyWlLk6GJQsqaUBKTNV-1" source="3TArhonoCJizNyGvk_5B-0" target="3TArhonoCJizNyGvk_5B-5">
          <mxGeometry width="50" height="50" relative="1" as="geometry">
            <mxPoint x="-70" y="470" as="sourcePoint" />
            <mxPoint x="182.67000000000002" y="230" as="targetPoint" />
            <Array as="points">
              <mxPoint x="130" y="340" />
              <mxPoint x="170" y="300" />
            </Array>
          </mxGeometry>
        </mxCell>
        <mxCell id="3TArhonoCJizNyGvk_5B-19" value="" style="endArrow=none;html=1;rounded=0;strokeColor=#001DBC;fillColor=#0050ef;" edge="1" parent="WIyWlLk6GJQsqaUBKTNV-1" source="3TArhonoCJizNyGvk_5B-0" target="3TArhonoCJizNyGvk_5B-4">
          <mxGeometry width="50" height="50" relative="1" as="geometry">
            <mxPoint x="-60" y="480" as="sourcePoint" />
            <mxPoint x="192.67000000000002" y="240" as="targetPoint" />
            <Array as="points">
              <mxPoint x="120" y="420" />
              <mxPoint x="170" y="390" />
            </Array>
          </mxGeometry>
        </mxCell>
        <mxCell id="3TArhonoCJizNyGvk_5B-20" value="" style="endArrow=none;html=1;rounded=0;strokeColor=#001DBC;fillColor=#0050ef;" edge="1" parent="WIyWlLk6GJQsqaUBKTNV-1" source="3TArhonoCJizNyGvk_5B-0" target="3TArhonoCJizNyGvk_5B-9">
          <mxGeometry width="50" height="50" relative="1" as="geometry">
            <mxPoint x="104" y="480" as="sourcePoint" />
            <mxPoint x="260" y="392" as="targetPoint" />
            <Array as="points">
              <mxPoint x="140" y="460" />
            </Array>
          </mxGeometry>
        </mxCell>
        <mxCell id="3TArhonoCJizNyGvk_5B-21" value="" style="endArrow=none;html=1;rounded=0;strokeColor=#001DBC;fillColor=#0050ef;" edge="1" parent="WIyWlLk6GJQsqaUBKTNV-1" source="3TArhonoCJizNyGvk_5B-0" target="3TArhonoCJizNyGvk_5B-8">
          <mxGeometry width="50" height="50" relative="1" as="geometry">
            <mxPoint x="110" y="499" as="sourcePoint" />
            <mxPoint x="260" y="470" as="targetPoint" />
            <Array as="points">
              <mxPoint x="140" y="542" />
            </Array>
          </mxGeometry>
        </mxCell>
        <mxCell id="3TArhonoCJizNyGvk_5B-22" value="" style="endArrow=none;html=1;rounded=0;strokeColor=#A50040;fillColor=#d80073;" edge="1" parent="WIyWlLk6GJQsqaUBKTNV-1" source="3TArhonoCJizNyGvk_5B-7" target="3TArhonoCJizNyGvk_5B-1">
          <mxGeometry width="50" height="50" relative="1" as="geometry">
            <mxPoint x="380" y="470" as="sourcePoint" />
            <mxPoint x="520" y="501" as="targetPoint" />
            <Array as="points">
              <mxPoint x="410" y="622" />
            </Array>
          </mxGeometry>
        </mxCell>
        <mxCell id="3TArhonoCJizNyGvk_5B-23" value="" style="endArrow=none;html=1;rounded=0;strokeColor=#A50040;fillColor=#d80073;" edge="1" parent="WIyWlLk6GJQsqaUBKTNV-1" source="3TArhonoCJizNyGvk_5B-6" target="3TArhonoCJizNyGvk_5B-1">
          <mxGeometry width="50" height="50" relative="1" as="geometry">
            <mxPoint x="380" y="632" as="sourcePoint" />
            <mxPoint x="520" y="538" as="targetPoint" />
            <Array as="points">
              <mxPoint x="410" y="704" />
              <mxPoint x="460" y="660" />
            </Array>
          </mxGeometry>
        </mxCell>
        <mxCell id="3TArhonoCJizNyGvk_5B-24" value="" style="endArrow=none;html=1;rounded=0;strokeColor=#A50040;fillColor=#d80073;" edge="1" parent="WIyWlLk6GJQsqaUBKTNV-1" source="3TArhonoCJizNyGvk_5B-10" target="3TArhonoCJizNyGvk_5B-1">
          <mxGeometry width="50" height="50" relative="1" as="geometry">
            <mxPoint x="390" y="642" as="sourcePoint" />
            <mxPoint x="530" y="548" as="targetPoint" />
            <Array as="points">
              <mxPoint x="410" y="790" />
              <mxPoint x="460" y="730" />
            </Array>
          </mxGeometry>
        </mxCell>
        <mxCell id="3TArhonoCJizNyGvk_5B-25" value="" style="endArrow=none;html=1;rounded=0;strokeColor=#A50040;fillColor=#d80073;" edge="1" parent="WIyWlLk6GJQsqaUBKTNV-1" source="3TArhonoCJizNyGvk_5B-14" target="3TArhonoCJizNyGvk_5B-1">
          <mxGeometry width="50" height="50" relative="1" as="geometry">
            <mxPoint x="400" y="652" as="sourcePoint" />
            <mxPoint x="540" y="558" as="targetPoint" />
            <Array as="points">
              <mxPoint x="410" y="868" />
              <mxPoint x="470" y="780" />
            </Array>
          </mxGeometry>
        </mxCell>
        <mxCell id="3TArhonoCJizNyGvk_5B-26" value="" style="endArrow=none;html=1;rounded=0;strokeColor=#A50040;fillColor=#d80073;" edge="1" parent="WIyWlLk6GJQsqaUBKTNV-1" source="3TArhonoCJizNyGvk_5B-13" target="3TArhonoCJizNyGvk_5B-1">
          <mxGeometry width="50" height="50" relative="1" as="geometry">
            <mxPoint x="380" y="878" as="sourcePoint" />
            <mxPoint x="528" y="540" as="targetPoint" />
            <Array as="points">
              <mxPoint x="410" y="950" />
              <mxPoint x="480" y="870" />
            </Array>
          </mxGeometry>
        </mxCell>
        <mxCell id="3TArhonoCJizNyGvk_5B-1" value="User Toko" style="shape=umlActor;verticalLabelPosition=bottom;verticalAlign=top;html=1;outlineConnect=0;noLabel=0;container=0;labelBackgroundColor=default;spacing=2;strokeWidth=2;" vertex="1" parent="WIyWlLk6GJQsqaUBKTNV-1">
          <mxGeometry x="510" y="470" width="30" height="60" as="geometry" />
        </mxCell>
        <mxCell id="3TArhonoCJizNyGvk_5B-0" value="User" style="shape=umlActor;verticalLabelPosition=bottom;verticalAlign=top;html=1;outlineConnect=0;labelBackgroundColor=default;" vertex="1" parent="WIyWlLk6GJQsqaUBKTNV-1">
          <mxGeometry x="70" y="470" width="30" height="60" as="geometry" />
        </mxCell>
      </root>
    </mxGraphModel>
  </diagram>
</mxfile>
